<svg width="567" height="567" viewBox="0 0 567 567" fill="none" xmlns="http://www.w3.org/2000/svg">
<g clip-path="url(#clip0_442_3271)">
<path d="M567 0H0V567H567V0Z" fill="white"/>
<path d="M47.5381 35.4375H35.4375V47.5381H47.5381V35.4375Z" fill="black"/>
<path d="M59.6387 35.4375H47.5381V47.5381H59.6387V35.4375Z" fill="black"/>
<path d="M71.7393 35.4375H59.6387V47.5381H71.7393V35.4375Z" fill="black"/>
<path d="M83.8399 35.4375H71.7393V47.5381H83.8399V35.4375Z" fill="black"/>
<path d="M95.9406 35.4375H83.8399V47.5381H95.9406V35.4375Z" fill="black"/>
<path d="M108.041 35.4375H95.9406V47.5381H108.041V35.4375Z" fill="black"/>
<path d="M120.142 35.4375H108.041V47.5381H120.142V35.4375Z" fill="black"/>
<path d="M144.343 35.4375H132.242V47.5381H144.343V35.4375Z" fill="black"/>
<path d="M180.645 35.4375H168.544V47.5381H180.645V35.4375Z" fill="black"/>
<path d="M192.745 35.4375H180.645V47.5381H192.745V35.4375Z" fill="black"/>
<path d="M204.846 35.4375H192.745V47.5381H204.846V35.4375Z" fill="black"/>
<path d="M241.148 35.4375H229.047V47.5381H241.148V35.4375Z" fill="black"/>
<path d="M301.651 35.4375H289.55V47.5381H301.651V35.4375Z" fill="black"/>
<path d="M350.053 35.4375H337.953V47.5381H350.053V35.4375Z" fill="black"/>
<path d="M410.556 35.4375H398.456V47.5381H410.556V35.4375Z" fill="black"/>
<path d="M434.758 35.4375H422.657V47.5381H434.758V35.4375Z" fill="black"/>
<path d="M458.959 35.4375H446.858V47.5381H458.959V35.4375Z" fill="black"/>
<path d="M471.059 35.4375H458.959V47.5381H471.059V35.4375Z" fill="black"/>
<path d="M483.16 35.4375H471.059V47.5381H483.16V35.4375Z" fill="black"/>
<path d="M495.261 35.4375H483.16V47.5381H495.261V35.4375Z" fill="black"/>
<path d="M507.361 35.4375H495.261V47.5381H507.361V35.4375Z" fill="black"/>
<path d="M519.462 35.4375H507.361V47.5381H519.462V35.4375Z" fill="black"/>
<path d="M531.563 35.4375H519.462V47.5381H531.563V35.4375Z" fill="black"/>
<path d="M47.5381 47.5381H35.4375V59.6387H47.5381V47.5381Z" fill="black"/>
<path d="M120.142 47.5381H108.041V59.6387H120.142V47.5381Z" fill="black"/>
<path d="M168.544 47.5381H156.444V59.6387H168.544V47.5381Z" fill="black"/>
<path d="M180.645 47.5381H168.544V59.6387H180.645V47.5381Z" fill="black"/>
<path d="M204.846 47.5381H192.745V59.6387H204.846V47.5381Z" fill="black"/>
<path d="M216.947 47.5381H204.846V59.6387H216.947V47.5381Z" fill="black"/>
<path d="M277.45 47.5381H265.349V59.6387H277.45V47.5381Z" fill="black"/>
<path d="M301.651 47.5381H289.55V59.6387H301.651V47.5381Z" fill="black"/>
<path d="M325.852 47.5381H313.752V59.6387H325.852V47.5381Z" fill="black"/>
<path d="M337.953 47.5381H325.852V59.6387H337.953V47.5381Z" fill="black"/>
<path d="M350.053 47.5381H337.953V59.6387H350.053V47.5381Z" fill="black"/>
<path d="M398.456 47.5381H386.355V59.6387H398.456V47.5381Z" fill="black"/>
<path d="M458.959 47.5381H446.858V59.6387H458.959V47.5381Z" fill="black"/>
<path d="M531.563 47.5381H519.462V59.6387H531.563V47.5381Z" fill="black"/>
<path d="M47.5381 59.6387H35.4375V71.7393H47.5381V59.6387Z" fill="black"/>
<path d="M71.7393 59.6387H59.6387V71.7393H71.7393V59.6387Z" fill="black"/>
<path d="M83.8399 59.6387H71.7393V71.7393H83.8399V59.6387Z" fill="black"/>
<path d="M95.9406 59.6387H83.8399V71.7393H95.9406V59.6387Z" fill="black"/>
<path d="M120.142 59.6387H108.041V71.7393H120.142V59.6387Z" fill="black"/>
<path d="M168.544 59.6387H156.444V71.7393H168.544V59.6387Z" fill="black"/>
<path d="M216.947 59.6387H204.846V71.7393H216.947V59.6387Z" fill="black"/>
<path d="M253.248 59.6387H241.148V71.7393H253.248V59.6387Z" fill="black"/>
<path d="M289.55 59.6387H277.45V71.7393H289.55V59.6387Z" fill="black"/>
<path d="M301.651 59.6387H289.55V71.7393H301.651V59.6387Z" fill="black"/>
<path d="M313.752 59.6387H301.651V71.7393H313.752V59.6387Z" fill="black"/>
<path d="M325.852 59.6387H313.752V71.7393H325.852V59.6387Z" fill="black"/>
<path d="M337.953 59.6387H325.852V71.7393H337.953V59.6387Z" fill="black"/>
<path d="M350.053 59.6387H337.953V71.7393H350.053V59.6387Z" fill="black"/>
<path d="M398.456 59.6387H386.355V71.7393H398.456V59.6387Z" fill="black"/>
<path d="M410.556 59.6387H398.456V71.7393H410.556V59.6387Z" fill="black"/>
<path d="M422.657 59.6387H410.556V71.7393H422.657V59.6387Z" fill="black"/>
<path d="M434.758 59.6387H422.657V71.7393H434.758V59.6387Z" fill="black"/>
<path d="M458.959 59.6387H446.858V71.7393H458.959V59.6387Z" fill="black"/>
<path d="M483.16 59.6387H471.059V71.7393H483.16V59.6387Z" fill="black"/>
<path d="M495.261 59.6387H483.16V71.7393H495.261V59.6387Z" fill="black"/>
<path d="M507.361 59.6387H495.261V71.7393H507.361V59.6387Z" fill="black"/>
<path d="M531.563 59.6387H519.462V71.7393H531.563V59.6387Z" fill="black"/>
<path d="M47.5381 71.7393H35.4375V83.8399H47.5381V71.7393Z" fill="black"/>
<path d="M71.7393 71.7393H59.6387V83.8399H71.7393V71.7393Z" fill="black"/>
<path d="M83.8399 71.7393H71.7393V83.8399H83.8399V71.7393Z" fill="black"/>
<path d="M95.9406 71.7393H83.8399V83.8399H95.9406V71.7393Z" fill="black"/>
<path d="M120.142 71.7393H108.041V83.8399H120.142V71.7393Z" fill="black"/>
<path d="M144.343 71.7393H132.242V83.8399H144.343V71.7393Z" fill="black"/>
<path d="M204.846 71.7393H192.745V83.8399H204.846V71.7393Z" fill="black"/>
<path d="M253.248 71.7393H241.148V83.8399H253.248V71.7393Z" fill="black"/>
<path d="M301.651 71.7393H289.55V83.8399H301.651V71.7393Z" fill="black"/>
<path d="M313.752 71.7393H301.651V83.8399H313.752V71.7393Z" fill="black"/>
<path d="M325.852 71.7393H313.752V83.8399H325.852V71.7393Z" fill="black"/>
<path d="M350.053 71.7393H337.953V83.8399H350.053V71.7393Z" fill="black"/>
<path d="M374.255 71.7393H362.154V83.8399H374.255V71.7393Z" fill="black"/>
<path d="M398.456 71.7393H386.355V83.8399H398.456V71.7393Z" fill="black"/>
<path d="M434.758 71.7393H422.657V83.8399H434.758V71.7393Z" fill="black"/>
<path d="M458.959 71.7393H446.858V83.8399H458.959V71.7393Z" fill="black"/>
<path d="M483.16 71.7393H471.059V83.8399H483.16V71.7393Z" fill="black"/>
<path d="M495.261 71.7393H483.16V83.8399H495.261V71.7393Z" fill="black"/>
<path d="M507.361 71.7393H495.261V83.8399H507.361V71.7393Z" fill="black"/>
<path d="M531.563 71.7393H519.462V83.8399H531.563V71.7393Z" fill="black"/>
<path d="M47.5381 83.8399H35.4375V95.9406H47.5381V83.8399Z" fill="black"/>
<path d="M71.7393 83.8399H59.6387V95.9406H71.7393V83.8399Z" fill="black"/>
<path d="M83.8399 83.8399H71.7393V95.9406H83.8399V83.8399Z" fill="black"/>
<path d="M95.9406 83.8399H83.8399V95.9406H95.9406V83.8399Z" fill="black"/>
<path d="M120.142 83.8399H108.041V95.9406H120.142V83.8399Z" fill="black"/>
<path d="M168.544 83.8399H156.444V95.9406H168.544V83.8399Z" fill="black"/>
<path d="M180.645 83.8399H168.544V95.9406H180.645V83.8399Z" fill="black"/>
<path d="M229.047 83.8399H216.947V95.9406H229.047V83.8399Z" fill="black"/>
<path d="M241.148 83.8399L229.047 83.8399V95.9406H241.148V83.8399Z" fill="black"/>
<path d="M265.349 83.8399L253.248 83.8399V95.9406H265.349V83.8399Z" fill="black"/>
<path d="M277.45 83.8399H265.349V95.9406H277.45V83.8399Z" fill="black"/>
<path d="M313.752 83.8399H301.651V95.9406H313.752V83.8399Z" fill="black"/>
<path d="M350.053 83.8399H337.953V95.9406H350.053V83.8399Z" fill="black"/>
<path d="M374.255 83.8399H362.154V95.9406H374.255V83.8399Z" fill="black"/>
<path d="M398.456 83.8399H386.355V95.9406H398.456V83.8399Z" fill="black"/>
<path d="M422.657 83.8399L410.556 83.8399V95.9406H422.657V83.8399Z" fill="black"/>
<path d="M458.959 83.8399H446.858V95.9406H458.959V83.8399Z" fill="black"/>
<path d="M483.16 83.8399H471.059V95.9406H483.16V83.8399Z" fill="black"/>
<path d="M495.261 83.8399H483.16V95.9406H495.261V83.8399Z" fill="black"/>
<path d="M507.361 83.8399H495.261V95.9406H507.361V83.8399Z" fill="black"/>
<path d="M531.563 83.8399H519.462V95.9406H531.563V83.8399Z" fill="black"/>
<path d="M47.5381 95.9406H35.4375V108.041H47.5381V95.9406Z" fill="black"/>
<path d="M120.142 95.9406H108.041V108.041H120.142V95.9406Z" fill="black"/>
<path d="M144.343 95.9406H132.242V108.041H144.343V95.9406Z" fill="black"/>
<path d="M180.645 95.9406H168.544V108.041H180.645V95.9406Z" fill="black"/>
<path d="M216.947 95.9406H204.846V108.041H216.947V95.9406Z" fill="black"/>
<path d="M229.047 95.9406H216.947V108.041H229.047V95.9406Z" fill="black"/>
<path d="M253.248 95.9406H241.148V108.041H253.248V95.9406Z" fill="black"/>
<path d="M265.349 95.9406H253.248V108.041H265.349V95.9406Z" fill="black"/>
<path d="M289.55 95.9406H277.45V108.041H289.55V95.9406Z" fill="black"/>
<path d="M301.651 95.9406H289.55V108.041H301.651V95.9406Z" fill="black"/>
<path d="M313.752 95.9406H301.651V108.041H313.752V95.9406Z" fill="black"/>
<path d="M350.053 95.9406H337.953V108.041H350.053V95.9406Z" fill="black"/>
<path d="M362.154 95.9406H350.053V108.041H362.154V95.9406Z" fill="black"/>
<path d="M386.355 95.9406H374.255V108.041H386.355V95.9406Z" fill="black"/>
<path d="M398.456 95.9406H386.355V108.041H398.456V95.9406Z" fill="black"/>
<path d="M422.657 95.9406H410.556V108.041H422.657V95.9406Z" fill="black"/>
<path d="M458.959 95.9406H446.858V108.041H458.959V95.9406Z" fill="black"/>
<path d="M531.563 95.9406H519.462V108.041H531.563V95.9406Z" fill="black"/>
<path d="M47.5381 108.041H35.4375V120.142H47.5381V108.041Z" fill="black"/>
<path d="M59.6387 108.041H47.5381V120.142H59.6387V108.041Z" fill="black"/>
<path d="M71.7393 108.041H59.6387V120.142H71.7393V108.041Z" fill="black"/>
<path d="M83.8399 108.041H71.7393V120.142H83.8399V108.041Z" fill="black"/>
<path d="M95.9406 108.041H83.8399V120.142H95.9406V108.041Z" fill="black"/>
<path d="M108.041 108.041H95.9406V120.142H108.041V108.041Z" fill="black"/>
<path d="M120.142 108.041H108.041V120.142H120.142V108.041Z" fill="black"/>
<path d="M144.343 108.041H132.242V120.142H144.343V108.041Z" fill="black"/>
<path d="M168.544 108.041H156.444V120.142H168.544V108.041Z" fill="black"/>
<path d="M192.745 108.041H180.645V120.142H192.745V108.041Z" fill="black"/>
<path d="M216.947 108.041H204.846V120.142H216.947V108.041Z" fill="black"/>
<path d="M241.148 108.041H229.047V120.142H241.148V108.041Z" fill="black"/>
<path d="M265.349 108.041H253.248V120.142H265.349V108.041Z" fill="black"/>
<path d="M289.55 108.041H277.45V120.142H289.55V108.041Z" fill="black"/>
<path d="M313.752 108.041H301.651V120.142H313.752V108.041Z" fill="black"/>
<path d="M337.953 108.041H325.852V120.142H337.953V108.041Z" fill="black"/>
<path d="M362.154 108.041H350.053V120.142H362.154V108.041Z" fill="black"/>
<path d="M386.355 108.041H374.255V120.142H386.355V108.041Z" fill="black"/>
<path d="M410.556 108.041H398.456V120.142H410.556V108.041Z" fill="black"/>
<path d="M434.758 108.041H422.657V120.142H434.758V108.041Z" fill="black"/>
<path d="M458.959 108.041H446.858V120.142H458.959V108.041Z" fill="black"/>
<path d="M471.059 108.041H458.959V120.142H471.059V108.041Z" fill="black"/>
<path d="M483.16 108.041H471.059V120.142H483.16V108.041Z" fill="black"/>
<path d="M495.261 108.041H483.16V120.142H495.261V108.041Z" fill="black"/>
<path d="M507.361 108.041H495.261V120.142H507.361V108.041Z" fill="black"/>
<path d="M519.462 108.041H507.361V120.142H519.462V108.041Z" fill="black"/>
<path d="M531.563 108.041H519.462V120.142H531.563V108.041Z" fill="black"/>
<path d="M156.444 120.142H144.343V132.242H156.444V120.142Z" fill="black"/>
<path d="M168.544 120.142H156.444V132.242H168.544V120.142Z" fill="black"/>
<path d="M192.745 120.142H180.645V132.242H192.745V120.142Z" fill="black"/>
<path d="M216.947 120.142H204.846V132.242H216.947V120.142Z" fill="black"/>
<path d="M253.248 120.142H241.148V132.242H253.248V120.142Z" fill="black"/>
<path d="M265.349 120.142H253.248V132.242H265.349V120.142Z" fill="black"/>
<path d="M289.55 120.142H277.45V132.242H289.55V120.142Z" fill="black"/>
<path d="M386.355 120.142H374.255V132.242H386.355V120.142Z" fill="black"/>
<path d="M410.556 120.142H398.456V132.242H410.556V120.142Z" fill="black"/>
<path d="M434.758 120.142H422.657V132.242H434.758V120.142Z" fill="black"/>
<path d="M108.041 132.242H95.9406V144.343H108.041V132.242Z" fill="black"/>
<path d="M120.142 132.242H108.041V144.343H120.142V132.242Z" fill="black"/>
<path d="M144.343 132.242H132.242V144.343H144.343V132.242Z" fill="black"/>
<path d="M168.544 132.242H156.444V144.343H168.544V132.242Z" fill="black"/>
<path d="M241.148 132.242H229.047V144.343H241.148V132.242Z" fill="black"/>
<path d="M265.349 132.242H253.248V144.343H265.349V132.242Z" fill="black"/>
<path d="M289.55 132.242H277.45V144.343H289.55V132.242Z" fill="black"/>
<path d="M337.953 132.242H325.852V144.343H337.953V132.242Z" fill="black"/>
<path d="M350.053 132.242H337.953V144.343H350.053V132.242Z" fill="black"/>
<path d="M362.154 132.242H350.053V144.343H362.154V132.242Z" fill="black"/>
<path d="M386.355 132.242H374.255V144.343H386.355V132.242Z" fill="black"/>
<path d="M398.456 132.242H386.355V144.343H398.456V132.242Z" fill="black"/>
<path d="M410.556 132.242H398.456V144.343H410.556V132.242Z" fill="black"/>
<path d="M422.657 132.242H410.556V144.343H422.657V132.242Z" fill="black"/>
<path d="M446.858 132.242H434.758V144.343H446.858V132.242Z" fill="black"/>
<path d="M471.059 132.242H458.959V144.343H471.059V132.242Z" fill="black"/>
<path d="M495.261 132.242H483.16V144.343H495.261V132.242Z" fill="black"/>
<path d="M531.563 132.242H519.462V144.343H531.563V132.242Z" fill="black"/>
<path d="M47.5381 144.343H35.4375V156.444H47.5381V144.343Z" fill="black"/>
<path d="M71.7393 144.343H59.6387V156.444H71.7393V144.343Z" fill="black"/>
<path d="M95.9406 144.343H83.8399V156.444H95.9406V144.343Z" fill="black"/>
<path d="M108.041 144.343H95.9406V156.444H108.041V144.343Z" fill="black"/>
<path d="M132.242 144.343H120.142V156.444H132.242V144.343Z" fill="black"/>
<path d="M156.444 144.343H144.343V156.444H156.444V144.343Z" fill="black"/>
<path d="M180.645 144.343H168.544V156.444H180.645V144.343Z" fill="black"/>
<path d="M204.846 144.343H192.745V156.444H204.846V144.343Z" fill="black"/>
<path d="M229.047 144.343H216.947V156.444H229.047V144.343Z" fill="black"/>
<path d="M253.248 144.343H241.148V156.444H253.248V144.343Z" fill="black"/>
<path d="M265.349 144.343H253.248V156.444H265.349V144.343Z" fill="black"/>
<path d="M277.45 144.343H265.349V156.444H277.45V144.343Z" fill="black"/>
<path d="M289.55 144.343H277.45V156.444H289.55V144.343Z" fill="black"/>
<path d="M337.953 144.343H325.852V156.444H337.953V144.343Z" fill="black"/>
<path d="M398.456 144.343H386.355V156.444H398.456V144.343Z" fill="black"/>
<path d="M434.758 144.343H422.657V156.444H434.758V144.343Z" fill="black"/>
<path d="M446.858 144.343H434.758V156.444H446.858V144.343Z" fill="black"/>
<path d="M458.959 144.343H446.858V156.444H458.959V144.343Z" fill="black"/>
<path d="M495.261 144.343H483.16V156.444H495.261V144.343Z" fill="black"/>
<path d="M507.361 144.343H495.261V156.444H507.361V144.343Z" fill="black"/>
<path d="M47.5381 156.444H35.4375V168.544H47.5381V156.444Z" fill="black"/>
<path d="M95.9406 156.444H83.8399V168.544H95.9406V156.444Z" fill="black"/>
<path d="M108.041 156.444H95.9406V168.544H108.041V156.444Z" fill="black"/>
<path d="M120.142 156.444H108.041V168.544H120.142V156.444Z" fill="black"/>
<path d="M156.444 156.444H144.343V168.544H156.444V156.444Z" fill="black"/>
<path d="M180.645 156.444H168.544V168.544H180.645V156.444Z" fill="black"/>
<path d="M192.745 156.444H180.645V168.544H192.745V156.444Z" fill="black"/>
<path d="M204.846 156.444H192.745V168.544H204.846V156.444Z" fill="black"/>
<path d="M216.947 156.444H204.846V168.544H216.947V156.444Z" fill="black"/>
<path d="M241.148 156.444H229.047V168.544H241.148V156.444Z" fill="black"/>
<path d="M277.45 156.444H265.349V168.544H277.45V156.444Z" fill="black"/>
<path d="M289.55 156.444H277.45V168.544H289.55V156.444Z" fill="black"/>
<path d="M301.651 156.444H289.55V168.544H301.651V156.444Z" fill="black"/>
<path d="M362.154 156.444H350.053V168.544H362.154V156.444Z" fill="black"/>
<path d="M374.255 156.444H362.154V168.544H374.255V156.444Z" fill="black"/>
<path d="M398.456 156.444H386.355V168.544H398.456V156.444Z" fill="black"/>
<path d="M410.556 156.444H398.456V168.544H410.556V156.444Z" fill="black"/>
<path d="M458.959 156.444H446.858V168.544H458.959V156.444Z" fill="black"/>
<path d="M483.16 156.444H471.059V168.544H483.16V156.444Z" fill="black"/>
<path d="M507.361 156.444H495.261V168.544H507.361V156.444Z" fill="black"/>
<path d="M531.563 156.444H519.462V168.544H531.563V156.444Z" fill="black"/>
<path d="M59.6387 168.544H47.5381V180.645H59.6387V168.544Z" fill="black"/>
<path d="M71.7393 168.544H59.6387V180.645H71.7393V168.544Z" fill="black"/>
<path d="M108.041 168.544H95.9406V180.645H108.041V168.544Z" fill="black"/>
<path d="M132.242 168.544H120.142V180.645H132.242V168.544Z" fill="black"/>
<path d="M144.343 168.544H132.242V180.645H144.343V168.544Z" fill="black"/>
<path d="M168.544 168.544H156.444V180.645H168.544V168.544Z" fill="black"/>
<path d="M180.645 168.544H168.544V180.645H180.645V168.544Z" fill="black"/>
<path d="M204.846 168.544H192.745V180.645H204.846V168.544Z" fill="black"/>
<path d="M229.047 168.544H216.947V180.645H229.047V168.544Z" fill="black"/>
<path d="M253.248 168.544H241.148V180.645H253.248V168.544Z" fill="black"/>
<path d="M350.053 168.544H337.953V180.645H350.053V168.544Z" fill="black"/>
<path d="M362.154 168.544H350.053V180.645H362.154V168.544Z" fill="black"/>
<path d="M386.355 168.544H374.255V180.645H386.355V168.544Z" fill="black"/>
<path d="M398.456 168.544H386.355V180.645H398.456V168.544Z" fill="black"/>
<path d="M422.657 168.544H410.556V180.645H422.657V168.544Z" fill="black"/>
<path d="M458.959 168.544H446.858V180.645H458.959V168.544Z" fill="black"/>
<path d="M483.16 168.544H471.059V180.645H483.16V168.544Z" fill="black"/>
<path d="M507.361 168.544H495.261V180.645H507.361V168.544Z" fill="black"/>
<path d="M59.6387 180.645H47.5381V192.745H59.6387V180.645Z" fill="black"/>
<path d="M71.7393 180.645H59.6387V192.745H71.7393V180.645Z" fill="black"/>
<path d="M95.9406 180.645H83.8399V192.745H95.9406V180.645Z" fill="black"/>
<path d="M120.142 180.645H108.041V192.745H120.142V180.645Z" fill="black"/>
<path d="M132.242 180.645H120.142V192.745H132.242V180.645Z" fill="black"/>
<path d="M144.343 180.645H132.242V192.745H144.343V180.645Z" fill="black"/>
<path d="M156.444 180.645H144.343V192.745H156.444V180.645Z" fill="black"/>
<path d="M192.745 180.645H180.645V192.745H192.745V180.645Z" fill="black"/>
<path d="M204.846 180.645H192.745V192.745H204.846V180.645Z" fill="black"/>
<path d="M265.349 180.645H253.248V192.745H265.349V180.645Z" fill="black"/>
<path d="M277.45 180.645H265.349V192.745H277.45V180.645Z" fill="black"/>
<path d="M289.55 180.645H277.45V192.745H289.55V180.645Z" fill="black"/>
<path d="M313.752 180.645H301.651V192.745H313.752V180.645Z" fill="black"/>
<path d="M350.053 180.645H337.953V192.745H350.053V180.645Z" fill="black"/>
<path d="M362.154 180.645H350.053V192.745H362.154V180.645Z" fill="black"/>
<path d="M386.355 180.645H374.255V192.745H386.355V180.645Z" fill="black"/>
<path d="M398.456 180.645H386.355V192.745H398.456V180.645Z" fill="black"/>
<path d="M422.657 180.645H410.556V192.745H422.657V180.645Z" fill="black"/>
<path d="M434.758 180.645H422.657V192.745H434.758V180.645Z" fill="black"/>
<path d="M446.858 180.645H434.758V192.745H446.858V180.645Z" fill="black"/>
<path d="M458.959 180.645H446.858V192.745H458.959V180.645Z" fill="black"/>
<path d="M471.059 180.645H458.959V192.745H471.059V180.645Z" fill="black"/>
<path d="M483.16 180.645H471.059V192.745H483.16V180.645Z" fill="black"/>
<path d="M507.361 180.645H495.261V192.745H507.361V180.645Z" fill="black"/>
<path d="M132.242 192.745H120.142V204.846H132.242V192.745Z" fill="black"/>
<path d="M180.645 192.745H168.544V204.846H180.645V192.745Z" fill="black"/>
<path d="M229.047 192.745H216.947V204.846H229.047V192.745Z" fill="black"/>
<path d="M241.148 192.745H229.047V204.846H241.148V192.745Z" fill="black"/>
<path d="M253.248 192.745H241.148V204.846H253.248V192.745Z" fill="black"/>
<path d="M265.349 192.745H253.248V204.846H265.349V192.745Z" fill="black"/>
<path d="M277.45 192.745H265.349V204.846H277.45V192.745Z" fill="black"/>
<path d="M313.752 192.745H301.651V204.846H313.752V192.745Z" fill="black"/>
<path d="M337.953 192.745H325.852V204.846H337.953V192.745Z" fill="black"/>
<path d="M350.053 192.745H337.953V204.846H350.053V192.745Z" fill="black"/>
<path d="M362.154 192.745H350.053V204.846H362.154V192.745Z" fill="black"/>
<path d="M386.355 192.745H374.255V204.846H386.355V192.745Z" fill="black"/>
<path d="M398.456 192.745H386.355V204.846H398.456V192.745Z" fill="black"/>
<path d="M422.657 192.745H410.556V204.846H422.657V192.745Z" fill="black"/>
<path d="M446.858 192.745H434.758V204.846H446.858V192.745Z" fill="black"/>
<path d="M458.959 192.745H446.858V204.846H458.959V192.745Z" fill="black"/>
<path d="M483.16 192.745H471.059V204.846H483.16V192.745Z" fill="black"/>
<path d="M495.261 192.745H483.16V204.846H495.261V192.745Z" fill="black"/>
<path d="M519.462 192.745H507.361V204.846H519.462V192.745Z" fill="black"/>
<path d="M59.6387 204.846H47.5381V216.947H59.6387V204.846Z" fill="black"/>
<path d="M83.8399 204.846H71.7393V216.947H83.8399V204.846Z" fill="black"/>
<path d="M120.142 204.846H108.041V216.947H120.142V204.846Z" fill="black"/>
<path d="M144.343 204.846H132.242V216.947H144.343V204.846Z" fill="black"/>
<path d="M156.444 204.846H144.343V216.947H156.444V204.846Z" fill="black"/>
<path d="M180.645 204.846H168.544V216.947H180.645V204.846Z" fill="black"/>
<path d="M192.745 204.846H180.645V216.947H192.745V204.846Z" fill="black"/>
<path d="M241.148 204.846H229.047V216.947H241.148V204.846Z" fill="black"/>
<path d="M301.651 204.846H289.55V216.947H301.651V204.846Z" fill="black"/>
<path d="M313.752 204.846H301.651V216.947H313.752V204.846Z" fill="black"/>
<path d="M350.053 204.846H337.953V216.947H350.053V204.846Z" fill="black"/>
<path d="M362.154 204.846H350.053V216.947H362.154V204.846Z" fill="black"/>
<path d="M386.355 204.846H374.255V216.947H386.355V204.846Z" fill="black"/>
<path d="M398.456 204.846H386.355V216.947H398.456V204.846Z" fill="black"/>
<path d="M446.858 204.846H434.758V216.947H446.858V204.846Z" fill="black"/>
<path d="M458.959 204.846H446.858V216.947H458.959V204.846Z" fill="black"/>
<path d="M471.059 204.846H458.959V216.947H471.059V204.846Z" fill="black"/>
<path d="M483.16 204.846H471.059V216.947H483.16V204.846Z" fill="black"/>
<path d="M507.361 204.846H495.261V216.947H507.361V204.846Z" fill="black"/>
<path d="M47.5381 216.947H35.4375V229.047H47.5381V216.947Z" fill="black"/>
<path d="M59.6387 216.947H47.5381V229.047H59.6387V216.947Z" fill="black"/>
<path d="M83.8399 216.947H71.7393V229.047H83.8399V216.947Z" fill="black"/>
<path d="M95.9406 216.947H83.8399V229.047H95.9406V216.947Z" fill="black"/>
<path d="M132.242 216.947H120.142V229.047H132.242V216.947Z" fill="black"/>
<path d="M144.343 216.947H132.242V229.047H144.343V216.947Z" fill="black"/>
<path d="M156.444 216.947H144.343V229.047H156.444V216.947Z" fill="black"/>
<path d="M192.745 216.947H180.645V229.047H192.745V216.947Z" fill="black"/>
<path d="M204.846 216.947H192.745V229.047H204.846V216.947Z" fill="black"/>
<path d="M216.947 216.947H204.846V229.047H216.947V216.947Z" fill="black"/>
<path d="M229.047 216.947H216.947V229.047H229.047V216.947Z" fill="black"/>
<path d="M241.148 216.947H229.047V229.047H241.148V216.947Z" fill="black"/>
<path d="M253.248 216.947H241.148V229.047H253.248V216.947Z" fill="black"/>
<path d="M265.349 216.947H253.248V229.047H265.349V216.947Z" fill="black"/>
<path d="M277.45 216.947H265.349V229.047H277.45V216.947Z" fill="black"/>
<path d="M289.55 216.947H277.45V229.047H289.55V216.947Z" fill="black"/>
<path d="M301.651 216.947H289.55V229.047H301.651V216.947Z" fill="black"/>
<path d="M337.953 216.947H325.852V229.047H337.953V216.947Z" fill="black"/>
<path d="M362.154 216.947H350.053V229.047H362.154V216.947Z" fill="black"/>
<path d="M386.355 216.947H374.255V229.047H386.355V216.947Z" fill="black"/>
<path d="M410.556 216.947H398.456V229.047H410.556V216.947Z" fill="black"/>
<path d="M471.059 216.947H458.959V229.047H471.059V216.947Z" fill="black"/>
<path d="M495.261 216.947H483.16V229.047H495.261V216.947Z" fill="black"/>
<path d="M507.361 216.947H495.261V229.047H507.361V216.947Z" fill="black"/>
<path d="M519.462 216.947H507.361V229.047H519.462V216.947Z" fill="black"/>
<path d="M531.563 216.947H519.462V229.047H531.563V216.947Z" fill="black"/>
<path d="M83.8399 229.047H71.7393V241.148H83.8399V229.047Z" fill="black"/>
<path d="M108.041 229.047H95.9406V241.148H108.041V229.047Z" fill="black"/>
<path d="M120.142 229.047H108.041V241.148H120.142V229.047Z" fill="black"/>
<path d="M216.947 229.047H204.846V241.148H216.947V229.047Z" fill="black"/>
<path d="M253.248 229.047H241.148V241.148H253.248V229.047Z" fill="black"/>
<path d="M277.45 229.047H265.349V241.148H277.45V229.047Z" fill="black"/>
<path d="M325.852 229.047H313.752V241.148H325.852V229.047Z" fill="black"/>
<path d="M337.953 229.047H325.852V241.148H337.953V229.047Z" fill="black"/>
<path d="M362.154 229.047H350.053V241.148H362.154V229.047Z" fill="black"/>
<path d="M386.355 229.047H374.255V241.148H386.355V229.047Z" fill="black"/>
<path d="M398.456 229.047H386.355V241.148H398.456V229.047Z" fill="black"/>
<path d="M410.556 229.047H398.456V241.148H410.556V229.047Z" fill="black"/>
<path d="M483.16 229.047H471.059V241.148H483.16V229.047Z" fill="black"/>
<path d="M495.261 229.047H483.16V241.148H495.261V229.047Z" fill="black"/>
<path d="M59.6387 241.148H47.5381V253.248H59.6387V241.148Z" fill="black"/>
<path d="M71.7393 241.148H59.6387V253.248H71.7393V241.148Z" fill="black"/>
<path d="M83.8399 241.148H71.7393V253.248H83.8399V241.148Z" fill="black"/>
<path d="M95.9406 241.148H83.8399V253.248H95.9406V241.148Z" fill="black"/>
<path d="M108.041 241.148H95.9406V253.248H108.041V241.148Z" fill="black"/>
<path d="M132.242 241.148H120.142V253.248H132.242V241.148Z" fill="black"/>
<path d="M156.444 241.148H144.343V253.248H156.444V241.148Z" fill="black"/>
<path d="M204.846 241.148H192.745V253.248H204.846V241.148Z" fill="black"/>
<path d="M216.947 241.148H204.846V253.248H216.947V241.148Z" fill="black"/>
<path d="M229.047 241.148H216.947V253.248H229.047V241.148Z" fill="black"/>
<path d="M253.248 241.148H241.148V253.248H253.248V241.148Z" fill="black"/>
<path d="M265.349 241.148H253.248V253.248H265.349V241.148Z" fill="black"/>
<path d="M289.55 241.148H277.45V253.248H289.55V241.148Z" fill="black"/>
<path d="M301.651 241.148H289.55V253.248H301.651V241.148Z" fill="black"/>
<path d="M337.953 241.148H325.852V253.248H337.953V241.148Z" fill="black"/>
<path d="M350.053 241.148H337.953V253.248H350.053V241.148Z" fill="black"/>
<path d="M374.255 241.148H362.154V253.248H374.255V241.148Z" fill="black"/>
<path d="M386.355 241.148H374.255V253.248H386.355V241.148Z" fill="black"/>
<path d="M422.657 241.148H410.556V253.248H422.657V241.148Z" fill="black"/>
<path d="M446.858 241.148H434.758V253.248H446.858V241.148Z" fill="black"/>
<path d="M495.261 241.148H483.16V253.248H495.261V241.148Z" fill="black"/>
<path d="M47.5381 253.248H35.4375V265.349H47.5381V253.248Z" fill="black"/>
<path d="M108.041 253.248H95.9406V265.349H108.041V253.248Z" fill="black"/>
<path d="M120.142 253.248H108.041V265.349H120.142V253.248Z" fill="black"/>
<path d="M132.242 253.248H120.142V265.349H132.242V253.248Z" fill="black"/>
<path d="M168.544 253.248H156.444V265.349H168.544V253.248Z" fill="black"/>
<path d="M229.047 253.248H216.947V265.349H229.047V253.248Z" fill="black"/>
<path d="M362.154 253.248H350.053V265.349H362.154V253.248Z" fill="black"/>
<path d="M374.255 253.248H362.154V265.349H374.255V253.248Z" fill="black"/>
<path d="M410.556 253.248H398.456V265.349H410.556V253.248Z" fill="black"/>
<path d="M422.657 253.248H410.556V265.349H422.657V253.248Z" fill="black"/>
<path d="M434.758 253.248H422.657V265.349H434.758V253.248Z" fill="black"/>
<path d="M458.959 253.248H446.858V265.349H458.959V253.248Z" fill="black"/>
<path d="M471.059 253.248H458.959V265.349H471.059V253.248Z" fill="black"/>
<path d="M483.16 253.248H471.059V265.349H483.16V253.248Z" fill="black"/>
<path d="M495.261 253.248H483.16V265.349H495.261V253.248Z" fill="black"/>
<path d="M507.361 253.248H495.261V265.349H507.361V253.248Z" fill="black"/>
<path d="M519.462 253.248H507.361V265.349H519.462V253.248Z" fill="black"/>
<path d="M47.5381 265.349H35.4375V277.45H47.5381V265.349Z" fill="black"/>
<path d="M71.7393 265.349H59.6387V277.45H71.7393V265.349Z" fill="black"/>
<path d="M83.8399 265.349H71.7393V277.45H83.8399V265.349Z" fill="black"/>
<path d="M95.9406 265.349H83.8399V277.45H95.9406V265.349Z" fill="black"/>
<path d="M108.041 265.349H95.9406V277.45H108.041V265.349Z" fill="black"/>
<path d="M168.544 265.349H156.444V277.45H168.544V265.349Z" fill="black"/>
<path d="M180.645 265.349H168.544V277.45H180.645V265.349Z" fill="black"/>
<path d="M192.745 265.349H180.645V277.45H192.745V265.349Z" fill="black"/>
<path d="M216.947 265.349H204.846V277.45H216.947V265.349Z" fill="black"/>
<path d="M301.651 265.349H289.55V277.45H301.651V265.349Z" fill="black"/>
<path d="M313.752 265.349H301.651V277.45H313.752V265.349Z" fill="black"/>
<path d="M325.852 265.349H313.752V277.45H325.852V265.349Z" fill="black"/>
<path d="M337.953 265.349H325.852V277.45H337.953V265.349Z" fill="black"/>
<path d="M350.053 265.349H337.953V277.45H350.053V265.349Z" fill="black"/>
<path d="M398.456 265.349H386.355V277.45H398.456V265.349Z" fill="black"/>
<path d="M446.858 265.349H434.758V277.45H446.858V265.349Z" fill="black"/>
<path d="M458.959 265.349H446.858V277.45H458.959V265.349Z" fill="black"/>
<path d="M483.16 265.349H471.059V277.45H483.16V265.349Z" fill="black"/>
<path d="M495.261 265.349H483.16V277.45H495.261V265.349Z" fill="black"/>
<path d="M519.462 265.349H507.361V277.45H519.462V265.349Z" fill="black"/>
<path d="M59.6387 277.45H47.5381V289.55H59.6387V277.45Z" fill="black"/>
<path d="M71.7393 277.45H59.6387V289.55H71.7393V277.45Z" fill="black"/>
<path d="M83.8399 277.45H71.7393V289.55H83.8399V277.45Z" fill="black"/>
<path d="M120.142 277.45H108.041V289.55H120.142V277.45Z" fill="black"/>
<path d="M192.745 277.45H180.645V289.55H192.745V277.45Z" fill="black"/>
<path d="M204.846 277.45H192.745V289.55H204.846V277.45Z" fill="black"/>
<path d="M229.047 277.45H216.947V289.55H229.047V277.45Z" fill="black"/>
<path d="M241.148 277.45H229.047V289.55H241.148V277.45Z" fill="black"/>
<path d="M277.45 277.45H265.349V289.55H277.45V277.45Z" fill="black"/>
<path d="M301.651 277.45H289.55V289.55H301.651V277.45Z" fill="black"/>
<path d="M337.953 277.45H325.852V289.55H337.953V277.45Z" fill="black"/>
<path d="M350.053 277.45H337.953V289.55H350.053V277.45Z" fill="black"/>
<path d="M362.154 277.45H350.053V289.55H362.154V277.45Z" fill="black"/>
<path d="M374.255 277.45H362.154V289.55H374.255V277.45Z" fill="black"/>
<path d="M398.456 277.45H386.355V289.55H398.456V277.45Z" fill="black"/>
<path d="M434.758 277.45H422.657V289.55H434.758V277.45Z" fill="black"/>
<path d="M446.858 277.45H434.758V289.55H446.858V277.45Z" fill="black"/>
<path d="M471.059 277.45H458.959V289.55H471.059V277.45Z" fill="black"/>
<path d="M483.16 277.45H471.059V289.55H483.16V277.45Z" fill="black"/>
<path d="M495.261 277.45H483.16V289.55H495.261V277.45Z" fill="black"/>
<path d="M531.563 277.45H519.462V289.55H531.563V277.45Z" fill="black"/>
<path d="M47.5381 289.55H35.4375V301.651H47.5381V289.55Z" fill="black"/>
<path d="M71.7393 289.55H59.6387V301.651H71.7393V289.55Z" fill="black"/>
<path d="M83.8399 289.55H71.7393V301.651H83.8399V289.55Z" fill="black"/>
<path d="M108.041 289.55H95.9406V301.651H108.041V289.55Z" fill="black"/>
<path d="M132.242 289.55H120.142V301.651H132.242V289.55Z" fill="black"/>
<path d="M144.343 289.55H132.242V301.651H144.343V289.55Z" fill="black"/>
<path d="M180.645 289.55H168.544V301.651H180.645V289.55Z" fill="black"/>
<path d="M204.846 289.55H192.745V301.651H204.846V289.55Z" fill="black"/>
<path d="M216.947 289.55H204.846V301.651H216.947V289.55Z" fill="black"/>
<path d="M229.047 289.55H216.947V301.651H229.047V289.55Z" fill="black"/>
<path d="M253.248 289.55H241.148V301.651H253.248V289.55Z" fill="black"/>
<path d="M277.45 289.55H265.349V301.651H277.45V289.55Z" fill="black"/>
<path d="M313.752 289.55H301.651V301.651H313.752V289.55Z" fill="black"/>
<path d="M325.852 289.55H313.752V301.651H325.852V289.55Z" fill="black"/>
<path d="M337.953 289.55H325.852V301.651H337.953V289.55Z" fill="black"/>
<path d="M350.053 289.55H337.953V301.651H350.053V289.55Z" fill="black"/>
<path d="M374.255 289.55H362.154V301.651H374.255V289.55Z" fill="black"/>
<path d="M422.657 289.55H410.556V301.651H422.657V289.55Z" fill="black"/>
<path d="M458.959 289.55H446.858V301.651H458.959V289.55Z" fill="black"/>
<path d="M495.261 289.55H483.16V301.651H495.261V289.55Z" fill="black"/>
<path d="M507.361 289.55H495.261V301.651H507.361V289.55Z" fill="black"/>
<path d="M519.462 289.55H507.361V301.651H519.462V289.55Z" fill="black"/>
<path d="M531.563 289.55H519.462V301.651H531.563V289.55Z" fill="black"/>
<path d="M71.7393 301.651H59.6387V313.752H71.7393V301.651Z" fill="black"/>
<path d="M83.8399 301.651H71.7393V313.752H83.8399V301.651Z" fill="black"/>
<path d="M108.041 301.651H95.9406V313.752H108.041V301.651Z" fill="black"/>
<path d="M120.142 301.651H108.041V313.752H120.142V301.651Z" fill="black"/>
<path d="M144.343 301.651H132.242V313.752H144.343V301.651Z" fill="black"/>
<path d="M168.544 301.651H156.444V313.752H168.544V301.651Z" fill="black"/>
<path d="M180.645 301.651H168.544V313.752H180.645V301.651Z" fill="black"/>
<path d="M216.947 301.651H204.846V313.752H216.947V301.651Z" fill="black"/>
<path d="M229.047 301.651H216.947V313.752H229.047V301.651Z" fill="black"/>
<path d="M241.148 301.651H229.047V313.752H241.148V301.651Z" fill="black"/>
<path d="M265.349 301.651H253.248V313.752H265.349V301.651Z" fill="black"/>
<path d="M289.55 301.651H277.45V313.752H289.55V301.651Z" fill="black"/>
<path d="M301.651 301.651H289.55V313.752H301.651V301.651Z" fill="black"/>
<path d="M313.752 301.651H301.651V313.752H313.752V301.651Z" fill="black"/>
<path d="M350.053 301.651H337.953V313.752H350.053V301.651Z" fill="black"/>
<path d="M362.154 301.651H350.053V313.752H362.154V301.651Z" fill="black"/>
<path d="M374.255 301.651H362.154V313.752H374.255V301.651Z" fill="black"/>
<path d="M386.355 301.651H374.255V313.752H386.355V301.651Z" fill="black"/>
<path d="M422.657 301.651H410.556V313.752H422.657V301.651Z" fill="black"/>
<path d="M458.959 301.651H446.858V313.752H458.959V301.651Z" fill="black"/>
<path d="M495.261 301.651H483.16V313.752H495.261V301.651Z" fill="black"/>
<path d="M507.361 301.651H495.261V313.752H507.361V301.651Z" fill="black"/>
<path d="M519.462 301.651H507.361V313.752H519.462V301.651Z" fill="black"/>
<path d="M531.563 301.651H519.462V313.752H531.563V301.651Z" fill="black"/>
<path d="M59.6387 313.752H47.5381V325.852H59.6387V313.752Z" fill="black"/>
<path d="M95.9406 313.752H83.8399L83.8399 325.852H95.9406V313.752Z" fill="black"/>
<path d="M132.242 313.752H120.142V325.852H132.242V313.752Z" fill="black"/>
<path d="M192.745 313.752H180.645V325.852H192.745V313.752Z" fill="black"/>
<path d="M204.846 313.752H192.745V325.852H204.846V313.752Z" fill="black"/>
<path d="M216.947 313.752H204.846V325.852H216.947V313.752Z" fill="black"/>
<path d="M229.047 313.752H216.947V325.852H229.047V313.752Z" fill="black"/>
<path d="M253.248 313.752H241.148V325.852H253.248V313.752Z" fill="black"/>
<path d="M277.45 313.752H265.349V325.852H277.45V313.752Z" fill="black"/>
<path d="M289.55 313.752H277.45V325.852H289.55V313.752Z" fill="black"/>
<path d="M325.852 313.752H313.752V325.852H325.852V313.752Z" fill="black"/>
<path d="M362.154 313.752H350.053V325.852H362.154V313.752Z" fill="black"/>
<path d="M410.556 313.752H398.456V325.852H410.556V313.752Z" fill="black"/>
<path d="M471.059 313.752H458.959V325.852H471.059V313.752Z" fill="black"/>
<path d="M483.16 313.752H471.059V325.852H483.16V313.752Z" fill="black"/>
<path d="M507.361 313.752H495.261V325.852H507.361V313.752Z" fill="black"/>
<path d="M531.563 313.752H519.462V325.852H531.563V313.752Z" fill="black"/>
<path d="M71.7393 325.852H59.6387V337.953H71.7393V325.852Z" fill="black"/>
<path d="M120.142 325.852H108.041V337.953H120.142V325.852Z" fill="black"/>
<path d="M144.343 325.852H132.242V337.953H144.343V325.852Z" fill="black"/>
<path d="M156.444 325.852H144.343V337.953H156.444V325.852Z" fill="black"/>
<path d="M168.544 325.852H156.444V337.953H168.544V325.852Z" fill="black"/>
<path d="M180.645 325.852H168.544V337.953H180.645V325.852Z" fill="black"/>
<path d="M241.148 325.852H229.047V337.953H241.148V325.852Z" fill="black"/>
<path d="M253.248 325.852H241.148V337.953H253.248V325.852Z" fill="black"/>
<path d="M277.45 325.852H265.349V337.953H277.45V325.852Z" fill="black"/>
<path d="M289.55 325.852H277.45V337.953H289.55V325.852Z" fill="black"/>
<path d="M301.651 325.852H289.55V337.953H301.651V325.852Z" fill="black"/>
<path d="M313.752 325.852H301.651V337.953H313.752V325.852Z" fill="black"/>
<path d="M325.852 325.852H313.752V337.953H325.852V325.852Z" fill="black"/>
<path d="M337.953 325.852H325.852V337.953H337.953V325.852Z" fill="black"/>
<path d="M350.053 325.852H337.953V337.953H350.053V325.852Z" fill="black"/>
<path d="M374.255 325.852H362.154V337.953H374.255V325.852Z" fill="black"/>
<path d="M386.355 325.852H374.255V337.953H386.355V325.852Z" fill="black"/>
<path d="M398.456 325.852H386.355V337.953H398.456V325.852Z" fill="black"/>
<path d="M410.556 325.852H398.456V337.953H410.556V325.852Z" fill="black"/>
<path d="M422.657 325.852H410.556V337.953H422.657V325.852Z" fill="black"/>
<path d="M446.858 325.852H434.758V337.953H446.858V325.852Z" fill="black"/>
<path d="M471.059 325.852H458.959V337.953H471.059V325.852Z" fill="black"/>
<path d="M483.16 325.852H471.059V337.953H483.16V325.852Z" fill="black"/>
<path d="M495.261 325.852H483.16V337.953H495.261V325.852Z" fill="black"/>
<path d="M507.361 325.852H495.261V337.953H507.361V325.852Z" fill="black"/>
<path d="M519.462 325.852H507.361V337.953H519.462V325.852Z" fill="black"/>
<path d="M531.563 325.852H519.462V337.953H531.563V325.852Z" fill="black"/>
<path d="M47.5381 337.953H35.4375V350.053H47.5381V337.953Z" fill="black"/>
<path d="M95.9406 337.953H83.8399V350.053H95.9406V337.953Z" fill="black"/>
<path d="M144.343 337.953H132.242V350.053H144.343V337.953Z" fill="black"/>
<path d="M156.444 337.953H144.343V350.053H156.444V337.953Z" fill="black"/>
<path d="M168.544 337.953H156.444V350.053H168.544V337.953Z" fill="black"/>
<path d="M180.645 337.953H168.544V350.053H180.645V337.953Z" fill="black"/>
<path d="M192.745 337.953H180.645V350.053H192.745V337.953Z" fill="black"/>
<path d="M229.047 337.953H216.947V350.053H229.047V337.953Z" fill="black"/>
<path d="M265.349 337.953H253.248V350.053H265.349V337.953Z" fill="black"/>
<path d="M289.55 337.953H277.45V350.053H289.55V337.953Z" fill="black"/>
<path d="M325.852 337.953H313.752V350.053H325.852V337.953Z" fill="black"/>
<path d="M337.953 337.953H325.852V350.053H337.953V337.953Z" fill="black"/>
<path d="M350.053 337.953H337.953V350.053H350.053V337.953Z" fill="black"/>
<path d="M374.255 337.953H362.154V350.053H374.255V337.953Z" fill="black"/>
<path d="M398.456 337.953H386.355V350.053H398.456V337.953Z" fill="black"/>
<path d="M410.556 337.953H398.456V350.053H410.556V337.953Z" fill="black"/>
<path d="M446.858 337.953H434.758V350.053H446.858V337.953Z" fill="black"/>
<path d="M471.059 337.953H458.959V350.053H471.059V337.953Z" fill="black"/>
<path d="M495.261 337.953H483.16V350.053H495.261V337.953Z" fill="black"/>
<path d="M507.361 337.953H495.261V350.053H507.361V337.953Z" fill="black"/>
<path d="M519.462 337.953H507.361V350.053H519.462V337.953Z" fill="black"/>
<path d="M71.7393 350.053H59.6387V362.154H71.7393V350.053Z" fill="black"/>
<path d="M83.8399 350.053H71.7393V362.154H83.8399L83.8399 350.053Z" fill="black"/>
<path d="M95.9406 350.053H83.8399L83.8399 362.154H95.9406V350.053Z" fill="black"/>
<path d="M120.142 350.053H108.041V362.154H120.142V350.053Z" fill="black"/>
<path d="M132.242 350.053H120.142V362.154H132.242V350.053Z" fill="black"/>
<path d="M144.343 350.053H132.242V362.154H144.343V350.053Z" fill="black"/>
<path d="M180.645 350.053H168.544V362.154H180.645V350.053Z" fill="black"/>
<path d="M241.148 350.053H229.047V362.154H241.148V350.053Z" fill="black"/>
<path d="M289.55 350.053H277.45V362.154H289.55V350.053Z" fill="black"/>
<path d="M362.154 350.053H350.053V362.154H362.154V350.053Z" fill="black"/>
<path d="M374.255 350.053H362.154V362.154H374.255V350.053Z" fill="black"/>
<path d="M398.456 350.053H386.355V362.154H398.456V350.053Z" fill="black"/>
<path d="M410.556 350.053H398.456V362.154H410.556V350.053Z" fill="black"/>
<path d="M422.657 350.053H410.556V362.154H422.657V350.053Z" fill="black"/>
<path d="M434.758 350.053H422.657V362.154H434.758V350.053Z" fill="black"/>
<path d="M483.16 350.053H471.059V362.154H483.16V350.053Z" fill="black"/>
<path d="M507.361 350.053H495.261V362.154H507.361V350.053Z" fill="black"/>
<path d="M519.462 350.053H507.361V362.154H519.462V350.053Z" fill="black"/>
<path d="M59.6387 362.154H47.5381V374.255H59.6387V362.154Z" fill="black"/>
<path d="M83.8399 362.154H71.7393V374.255H83.8399V362.154Z" fill="black"/>
<path d="M95.9406 362.154H83.8399V374.255H95.9406V362.154Z" fill="black"/>
<path d="M108.041 362.154H95.9406V374.255H108.041V362.154Z" fill="black"/>
<path d="M192.745 362.154H180.645V374.255H192.745V362.154Z" fill="black"/>
<path d="M289.55 362.154H277.45V374.255H289.55V362.154Z" fill="black"/>
<path d="M325.852 362.154H313.752V374.255H325.852V362.154Z" fill="black"/>
<path d="M422.657 362.154H410.556V374.255H422.657V362.154Z" fill="black"/>
<path d="M471.059 362.154H458.959V374.255H471.059V362.154Z" fill="black"/>
<path d="M483.16 362.154H471.059V374.255H483.16V362.154Z" fill="black"/>
<path d="M519.462 362.154H507.361V374.255H519.462V362.154Z" fill="black"/>
<path d="M531.563 362.154H519.462V374.255H531.563V362.154Z" fill="black"/>
<path d="M83.8399 374.255H71.7393V386.355H83.8399V374.255Z" fill="black"/>
<path d="M108.041 374.255H95.9406V386.355H108.041V374.255Z" fill="black"/>
<path d="M120.142 374.255H108.041V386.355H120.142V374.255Z" fill="black"/>
<path d="M132.242 374.255H120.142V386.355H132.242V374.255Z" fill="black"/>
<path d="M144.343 374.255H132.242V386.355H144.343V374.255Z" fill="black"/>
<path d="M156.444 374.255H144.343V386.355H156.444V374.255Z" fill="black"/>
<path d="M180.645 374.255H168.544V386.355H180.645V374.255Z" fill="black"/>
<path d="M192.745 374.255H180.645V386.355H192.745V374.255Z" fill="black"/>
<path d="M216.947 374.255H204.846V386.355H216.947V374.255Z" fill="black"/>
<path d="M253.248 374.255H241.148V386.355H253.248V374.255Z" fill="black"/>
<path d="M265.349 374.255H253.248V386.355H265.349V374.255Z" fill="black"/>
<path d="M277.45 374.255H265.349V386.355H277.45V374.255Z" fill="black"/>
<path d="M289.55 374.255H277.45V386.355H289.55V374.255Z" fill="black"/>
<path d="M301.651 374.255H289.55V386.355H301.651V374.255Z" fill="black"/>
<path d="M337.953 374.255H325.852V386.355H337.953V374.255Z" fill="black"/>
<path d="M350.053 374.255H337.953V386.355H350.053V374.255Z" fill="black"/>
<path d="M386.355 374.255H374.255V386.355H386.355V374.255Z" fill="black"/>
<path d="M398.456 374.255H386.355V386.355H398.456V374.255Z" fill="black"/>
<path d="M422.657 374.255H410.556V386.355H422.657V374.255Z" fill="black"/>
<path d="M446.858 374.255H434.758V386.355H446.858V374.255Z" fill="black"/>
<path d="M507.361 374.255H495.261V386.355H507.361V374.255Z" fill="black"/>
<path d="M531.563 374.255H519.462V386.355H531.563V374.255Z" fill="black"/>
<path d="M47.5381 386.355H35.4375V398.456H47.5381V386.355Z" fill="black"/>
<path d="M59.6387 386.355H47.5381V398.456H59.6387V386.355Z" fill="black"/>
<path d="M71.7393 386.355H59.6387V398.456H71.7393V386.355Z" fill="black"/>
<path d="M132.242 386.355H120.142V398.456H132.242V386.355Z" fill="black"/>
<path d="M156.444 386.355H144.343V398.456H156.444V386.355Z" fill="black"/>
<path d="M192.745 386.355H180.645V398.456H192.745V386.355Z" fill="black"/>
<path d="M216.947 386.355H204.846V398.456H216.947V386.355Z" fill="black"/>
<path d="M229.047 386.355H216.947V398.456H229.047V386.355Z" fill="black"/>
<path d="M265.349 386.355H253.248V398.456H265.349V386.355Z" fill="black"/>
<path d="M277.45 386.355H265.349V398.456H277.45V386.355Z" fill="black"/>
<path d="M313.752 386.355H301.651V398.456H313.752V386.355Z" fill="black"/>
<path d="M337.953 386.355H325.852V398.456H337.953V386.355Z" fill="black"/>
<path d="M350.053 386.355H337.953V398.456H350.053V386.355Z" fill="black"/>
<path d="M362.154 386.355H350.053V398.456H362.154V386.355Z" fill="black"/>
<path d="M374.255 386.355H362.154V398.456H374.255V386.355Z" fill="black"/>
<path d="M386.355 386.355H374.255V398.456H386.355V386.355Z" fill="black"/>
<path d="M398.456 386.355H386.355V398.456H398.456V386.355Z" fill="black"/>
<path d="M410.556 386.355H398.456V398.456H410.556V386.355Z" fill="black"/>
<path d="M422.657 386.355H410.556V398.456H422.657V386.355Z" fill="black"/>
<path d="M434.758 386.355H422.657V398.456H434.758V386.355Z" fill="black"/>
<path d="M483.16 386.355H471.059V398.456H483.16V386.355Z" fill="black"/>
<path d="M495.261 386.355H483.16V398.456H495.261V386.355Z" fill="black"/>
<path d="M519.462 386.355H507.361V398.456H519.462V386.355Z" fill="black"/>
<path d="M531.563 386.355H519.462V398.456H531.563V386.355Z" fill="black"/>
<path d="M47.5381 398.456H35.4375V410.556H47.5381V398.456Z" fill="black"/>
<path d="M59.6387 398.456H47.5381V410.556H59.6387V398.456Z" fill="black"/>
<path d="M83.8399 398.456H71.7393V410.556H83.8399V398.456Z" fill="black"/>
<path d="M108.041 398.456H95.9406V410.556H108.041V398.456Z" fill="black"/>
<path d="M120.142 398.456H108.041V410.556H120.142V398.456Z" fill="black"/>
<path d="M168.544 398.456H156.444V410.556H168.544V398.456Z" fill="black"/>
<path d="M180.645 398.456H168.544V410.556H180.645V398.456Z" fill="black"/>
<path d="M192.745 398.456H180.645V410.556H192.745V398.456Z" fill="black"/>
<path d="M204.846 398.456H192.745V410.556H204.846V398.456Z" fill="black"/>
<path d="M216.947 398.456H204.846V410.556H216.947V398.456Z" fill="black"/>
<path d="M265.349 398.456H253.248V410.556H265.349V398.456Z" fill="black"/>
<path d="M277.45 398.456H265.349V410.556H277.45V398.456Z" fill="black"/>
<path d="M325.852 398.456H313.752V410.556H325.852V398.456Z" fill="black"/>
<path d="M362.154 398.456H350.053V410.556H362.154V398.456Z" fill="black"/>
<path d="M374.255 398.456H362.154V410.556H374.255V398.456Z" fill="black"/>
<path d="M422.657 398.456H410.556V410.556H422.657V398.456Z" fill="black"/>
<path d="M458.959 398.456H446.858V410.556H458.959V398.456Z" fill="black"/>
<path d="M507.361 398.456H495.261V410.556H507.361V398.456Z" fill="black"/>
<path d="M519.462 398.456H507.361V410.556H519.462V398.456Z" fill="black"/>
<path d="M83.8399 410.556H71.7393V422.657H83.8399V410.556Z" fill="black"/>
<path d="M108.041 410.556H95.9406V422.657H108.041V410.556Z" fill="black"/>
<path d="M132.242 410.556H120.142V422.657H132.242V410.556Z" fill="black"/>
<path d="M144.343 410.556H132.242V422.657H144.343V410.556Z" fill="black"/>
<path d="M168.544 410.556H156.444V422.657H168.544V410.556Z" fill="black"/>
<path d="M192.745 410.556H180.645V422.657H192.745V410.556Z" fill="black"/>
<path d="M204.846 410.556H192.745V422.657H204.846V410.556Z" fill="black"/>
<path d="M229.047 410.556H216.947V422.657H229.047V410.556Z" fill="black"/>
<path d="M241.148 410.556H229.047V422.657H241.148V410.556Z" fill="black"/>
<path d="M277.45 410.556H265.349V422.657H277.45V410.556Z" fill="black"/>
<path d="M289.55 410.556H277.45V422.657H289.55V410.556Z" fill="black"/>
<path d="M313.752 410.556H301.651V422.657H313.752V410.556Z" fill="black"/>
<path d="M325.852 410.556H313.752V422.657H325.852V410.556Z" fill="black"/>
<path d="M350.053 410.556H337.953V422.657H350.053V410.556Z" fill="black"/>
<path d="M422.657 410.556H410.556V422.657H422.657V410.556Z" fill="black"/>
<path d="M446.858 410.556H434.758V422.657H446.858V410.556Z" fill="black"/>
<path d="M458.959 410.556H446.858V422.657H458.959V410.556Z" fill="black"/>
<path d="M495.261 410.556H483.16V422.657H495.261V410.556Z" fill="black"/>
<path d="M507.361 410.556H495.261V422.657H507.361V410.556Z" fill="black"/>
<path d="M519.462 410.556H507.361V422.657H519.462V410.556Z" fill="black"/>
<path d="M83.8399 422.657H71.7393V434.758H83.8399V422.657Z" fill="black"/>
<path d="M95.9406 422.657H83.8399V434.758H95.9406V422.657Z" fill="black"/>
<path d="M120.142 422.657H108.041V434.758H120.142V422.657Z" fill="black"/>
<path d="M132.242 422.657H120.142V434.758H132.242V422.657Z" fill="black"/>
<path d="M156.444 422.657H144.343V434.758H156.444V422.657Z" fill="black"/>
<path d="M265.349 422.657H253.248V434.758H265.349V422.657Z" fill="black"/>
<path d="M313.752 422.657H301.651V434.758H313.752V422.657Z" fill="black"/>
<path d="M337.953 422.657H325.852V434.758H337.953V422.657Z" fill="black"/>
<path d="M362.154 422.657H350.053V434.758H362.154V422.657Z" fill="black"/>
<path d="M374.255 422.657H362.154V434.758H374.255V422.657Z" fill="black"/>
<path d="M434.758 422.657H422.657V434.758H434.758V422.657Z" fill="black"/>
<path d="M446.858 422.657H434.758V434.758H446.858V422.657Z" fill="black"/>
<path d="M458.959 422.657H446.858V434.758H458.959V422.657Z" fill="black"/>
<path d="M471.059 422.657H458.959V434.758H471.059V422.657Z" fill="black"/>
<path d="M483.16 422.657H471.059V434.758H483.16V422.657Z" fill="black"/>
<path d="M519.462 422.657H507.361V434.758H519.462V422.657Z" fill="black"/>
<path d="M531.563 422.657H519.462V434.758H531.563V422.657Z" fill="black"/>
<path d="M144.343 434.758H132.242V446.858H144.343V434.758Z" fill="black"/>
<path d="M156.444 434.758H144.343V446.858H156.444V434.758Z" fill="black"/>
<path d="M168.544 434.758H156.444V446.858H168.544V434.758Z" fill="black"/>
<path d="M192.745 434.758H180.645V446.858H192.745V434.758Z" fill="black"/>
<path d="M265.349 434.758H253.248V446.858H265.349V434.758Z" fill="black"/>
<path d="M277.45 434.758H265.349V446.858H277.45V434.758Z" fill="black"/>
<path d="M301.651 434.758H289.55V446.858H301.651V434.758Z" fill="black"/>
<path d="M325.852 434.758H313.752V446.858H325.852V434.758Z" fill="black"/>
<path d="M337.953 434.758H325.852V446.858H337.953V434.758Z" fill="black"/>
<path d="M350.053 434.758H337.953V446.858H350.053V434.758Z" fill="black"/>
<path d="M362.154 434.758H350.053V446.858H362.154V434.758Z" fill="black"/>
<path d="M386.355 434.758H374.255V446.858H386.355V434.758Z" fill="black"/>
<path d="M422.657 434.758H410.556V446.858H422.657V434.758Z" fill="black"/>
<path d="M434.758 434.758H422.657V446.858H434.758V434.758Z" fill="black"/>
<path d="M483.16 434.758H471.059V446.858H483.16V434.758Z" fill="black"/>
<path d="M495.261 434.758H483.16V446.858H495.261V434.758Z" fill="black"/>
<path d="M531.563 434.758H519.462V446.858H531.563V434.758Z" fill="black"/>
<path d="M47.5381 446.858H35.4375V458.959H47.5381V446.858Z" fill="black"/>
<path d="M59.6387 446.858H47.5381V458.959H59.6387V446.858Z" fill="black"/>
<path d="M71.7393 446.858H59.6387V458.959H71.7393V446.858Z" fill="black"/>
<path d="M83.8399 446.858H71.7393V458.959H83.8399V446.858Z" fill="black"/>
<path d="M95.9406 446.858H83.8399V458.959H95.9406V446.858Z" fill="black"/>
<path d="M108.041 446.858H95.9406V458.959H108.041V446.858Z" fill="black"/>
<path d="M120.142 446.858H108.041V458.959H120.142V446.858Z" fill="black"/>
<path d="M156.444 446.858H144.343V458.959H156.444V446.858Z" fill="black"/>
<path d="M168.544 446.858H156.444V458.959H168.544V446.858Z" fill="black"/>
<path d="M180.645 446.858H168.544V458.959H180.645V446.858Z" fill="black"/>
<path d="M192.745 446.858H180.645V458.959H192.745V446.858Z" fill="black"/>
<path d="M216.947 446.858H204.846V458.959H216.947V446.858Z" fill="black"/>
<path d="M229.047 446.858H216.947V458.959H229.047V446.858Z" fill="black"/>
<path d="M253.248 446.858H241.148V458.959H253.248V446.858Z" fill="black"/>
<path d="M265.349 446.858H253.248V458.959H265.349V446.858Z" fill="black"/>
<path d="M277.45 446.858H265.349V458.959H277.45V446.858Z" fill="black"/>
<path d="M289.55 446.858H277.45V458.959H289.55V446.858Z" fill="black"/>
<path d="M301.651 446.858H289.55V458.959H301.651V446.858Z" fill="black"/>
<path d="M313.752 446.858H301.651V458.959H313.752V446.858Z" fill="black"/>
<path d="M337.953 446.858H325.852V458.959H337.953V446.858Z" fill="black"/>
<path d="M350.053 446.858H337.953V458.959H350.053V446.858Z" fill="black"/>
<path d="M362.154 446.858H350.053V458.959H362.154V446.858Z" fill="black"/>
<path d="M398.456 446.858H386.355V458.959H398.456V446.858Z" fill="black"/>
<path d="M434.758 446.858H422.657V458.959H434.758V446.858Z" fill="black"/>
<path d="M458.959 446.858H446.858V458.959H458.959V446.858Z" fill="black"/>
<path d="M483.16 446.858H471.059V458.959H483.16V446.858Z" fill="black"/>
<path d="M495.261 446.858H483.16V458.959H495.261V446.858Z" fill="black"/>
<path d="M519.462 446.858H507.361V458.959H519.462V446.858Z" fill="black"/>
<path d="M531.563 446.858H519.462V458.959H531.563V446.858Z" fill="black"/>
<path d="M47.5381 458.959H35.4375V471.059H47.5381V458.959Z" fill="black"/>
<path d="M120.142 458.959H108.041V471.059H120.142V458.959Z" fill="black"/>
<path d="M144.343 458.959H132.242V471.059H144.343V458.959Z" fill="black"/>
<path d="M192.745 458.959H180.645V471.059H192.745V458.959Z" fill="black"/>
<path d="M216.947 458.959H204.846V471.059H216.947V458.959Z" fill="black"/>
<path d="M241.148 458.959H229.047V471.059H241.148V458.959Z" fill="black"/>
<path d="M253.248 458.959H241.148V471.059H253.248V458.959Z" fill="black"/>
<path d="M277.45 458.959H265.349V471.059H277.45V458.959Z" fill="black"/>
<path d="M301.651 458.959H289.55V471.059H301.651V458.959Z" fill="black"/>
<path d="M325.852 458.959H313.752V471.059H325.852V458.959Z" fill="black"/>
<path d="M337.953 458.959H325.852V471.059H337.953V458.959Z" fill="black"/>
<path d="M350.053 458.959H337.953V471.059H350.053V458.959Z" fill="black"/>
<path d="M362.154 458.959H350.053V471.059H362.154V458.959Z" fill="black"/>
<path d="M374.255 458.959H362.154V471.059H374.255V458.959Z" fill="black"/>
<path d="M398.456 458.959H386.355V471.059H398.456V458.959Z" fill="black"/>
<path d="M410.556 458.959H398.456V471.059H410.556V458.959Z" fill="black"/>
<path d="M434.758 458.959H422.657V471.059H434.758V458.959Z" fill="black"/>
<path d="M483.16 458.959H471.059V471.059H483.16V458.959Z" fill="black"/>
<path d="M519.462 458.959H507.361V471.059H519.462V458.959Z" fill="black"/>
<path d="M531.563 458.959H519.462V471.059H531.563V458.959Z" fill="black"/>
<path d="M47.5381 471.059H35.4375V483.16H47.5381V471.059Z" fill="black"/>
<path d="M71.7393 471.059H59.6387V483.16H71.7393V471.059Z" fill="black"/>
<path d="M83.8399 471.059H71.7393V483.16H83.8399V471.059Z" fill="black"/>
<path d="M95.9406 471.059H83.8399V483.16H95.9406V471.059Z" fill="black"/>
<path d="M120.142 471.059H108.041V483.16H120.142V471.059Z" fill="black"/>
<path d="M168.544 471.059H156.444V483.16H168.544V471.059Z" fill="black"/>
<path d="M229.047 471.059H216.947V483.16H229.047V471.059Z" fill="black"/>
<path d="M265.349 471.059H253.248V483.16H265.349V471.059Z" fill="black"/>
<path d="M313.752 471.059H301.651V483.16H313.752V471.059Z" fill="black"/>
<path d="M362.154 471.059H350.053V483.16H362.154V471.059Z" fill="black"/>
<path d="M374.255 471.059H362.154V483.16H374.255V471.059Z" fill="black"/>
<path d="M410.556 471.059H398.456V483.16H410.556V471.059Z" fill="black"/>
<path d="M434.758 471.059H422.657V483.16H434.758V471.059Z" fill="black"/>
<path d="M446.858 471.059H434.758V483.16H446.858V471.059Z" fill="black"/>
<path d="M458.959 471.059H446.858V483.16H458.959V471.059Z" fill="black"/>
<path d="M471.059 471.059H458.959V483.16H471.059V471.059Z" fill="black"/>
<path d="M483.16 471.059H471.059V483.16H483.16V471.059Z" fill="black"/>
<path d="M495.261 471.059H483.16V483.16H495.261V471.059Z" fill="black"/>
<path d="M507.361 471.059H495.261V483.16H507.361V471.059Z" fill="black"/>
<path d="M531.563 471.059H519.462V483.16H531.563V471.059Z" fill="black"/>
<path d="M47.5381 483.16H35.4375V495.261H47.5381V483.16Z" fill="black"/>
<path d="M71.7393 483.16H59.6387V495.261H71.7393V483.16Z" fill="black"/>
<path d="M83.8399 483.16H71.7393V495.261H83.8399V483.16Z" fill="black"/>
<path d="M95.9406 483.16H83.8399V495.261H95.9406V483.16Z" fill="black"/>
<path d="M120.142 483.16H108.041V495.261H120.142V483.16Z" fill="black"/>
<path d="M156.444 483.16H144.343V495.261H156.444V483.16Z" fill="black"/>
<path d="M168.544 483.16H156.444V495.261H168.544V483.16Z" fill="black"/>
<path d="M192.745 483.16H180.645V495.261H192.745V483.16Z" fill="black"/>
<path d="M204.846 483.16H192.745V495.261H204.846V483.16Z" fill="black"/>
<path d="M216.947 483.16H204.846V495.261H216.947V483.16Z" fill="black"/>
<path d="M241.148 483.16H229.047V495.261H241.148V483.16Z" fill="black"/>
<path d="M253.248 483.16H241.148V495.261H253.248V483.16Z" fill="black"/>
<path d="M265.349 483.16H253.248V495.261H265.349V483.16Z" fill="black"/>
<path d="M289.55 483.16H277.45V495.261H289.55V483.16Z" fill="black"/>
<path d="M313.752 483.16H301.651V495.261H313.752V483.16Z" fill="black"/>
<path d="M350.053 483.16H337.953V495.261H350.053V483.16Z" fill="black"/>
<path d="M410.556 483.16H398.456V495.261H410.556V483.16Z" fill="black"/>
<path d="M422.657 483.16H410.556V495.261H422.657V483.16Z" fill="black"/>
<path d="M458.959 483.16H446.858V495.261H458.959V483.16Z" fill="black"/>
<path d="M507.361 483.16H495.261V495.261H507.361V483.16Z" fill="black"/>
<path d="M47.5381 495.261H35.4375V507.361H47.5381V495.261Z" fill="black"/>
<path d="M71.7393 495.261H59.6387V507.361H71.7393V495.261Z" fill="black"/>
<path d="M83.8399 495.261H71.7393V507.361H83.8399V495.261Z" fill="black"/>
<path d="M95.9406 495.261H83.8399V507.361H95.9406V495.261Z" fill="black"/>
<path d="M120.142 495.261H108.041V507.361H120.142V495.261Z" fill="black"/>
<path d="M156.444 495.261H144.343V507.361H156.444V495.261Z" fill="black"/>
<path d="M168.544 495.261H156.444V507.361H168.544V495.261Z" fill="black"/>
<path d="M180.645 495.261H168.544V507.361H180.645V495.261Z" fill="black"/>
<path d="M265.349 495.261H253.248V507.361H265.349V495.261Z" fill="black"/>
<path d="M289.55 495.261H277.45V507.361H289.55V495.261Z" fill="black"/>
<path d="M313.752 495.261H301.651V507.361H313.752V495.261Z" fill="black"/>
<path d="M325.852 495.261H313.752V507.361H325.852V495.261Z" fill="black"/>
<path d="M410.556 495.261H398.456V507.361H410.556V495.261Z" fill="black"/>
<path d="M434.758 495.261H422.657V507.361H434.758V495.261Z" fill="black"/>
<path d="M471.059 495.261H458.959V507.361H471.059V495.261Z" fill="black"/>
<path d="M483.16 495.261H471.059V507.361H483.16V495.261Z" fill="black"/>
<path d="M495.261 495.261H483.16V507.361H495.261V495.261Z" fill="black"/>
<path d="M47.5381 507.361H35.4375V519.462H47.5381V507.361Z" fill="black"/>
<path d="M120.142 507.361H108.041V519.462H120.142V507.361Z" fill="black"/>
<path d="M156.444 507.361H144.343V519.462H156.444V507.361Z" fill="black"/>
<path d="M168.544 507.361H156.444V519.462H168.544V507.361Z" fill="black"/>
<path d="M192.745 507.361H180.645V519.462H192.745V507.361Z" fill="black"/>
<path d="M216.947 507.361H204.846V519.462H216.947V507.361Z" fill="black"/>
<path d="M229.047 507.361H216.947V519.462H229.047V507.361Z" fill="black"/>
<path d="M265.349 507.361H253.248V519.462H265.349V507.361Z" fill="black"/>
<path d="M301.651 507.361H289.55V519.462H301.651V507.361Z" fill="black"/>
<path d="M313.752 507.361H301.651V519.462H313.752V507.361Z" fill="black"/>
<path d="M325.852 507.361H313.752V519.462H325.852V507.361Z" fill="black"/>
<path d="M350.053 507.361H337.953V519.462H350.053V507.361Z" fill="black"/>
<path d="M362.154 507.361H350.053V519.462H362.154V507.361Z" fill="black"/>
<path d="M386.355 507.361H374.255V519.462H386.355V507.361Z" fill="black"/>
<path d="M398.456 507.361H386.355V519.462H398.456V507.361Z" fill="black"/>
<path d="M410.556 507.361H398.456V519.462H410.556V507.361Z" fill="black"/>
<path d="M422.657 507.361H410.556V519.462H422.657V507.361Z" fill="black"/>
<path d="M446.858 507.361H434.758V519.462H446.858V507.361Z" fill="black"/>
<path d="M458.959 507.361H446.858V519.462H458.959V507.361Z" fill="black"/>
<path d="M483.16 507.361H471.059V519.462H483.16V507.361Z" fill="black"/>
<path d="M495.261 507.361H483.16V519.462H495.261V507.361Z" fill="black"/>
<path d="M507.361 507.361H495.261V519.462H507.361V507.361Z" fill="black"/>
<path d="M519.462 507.361H507.361V519.462H519.462V507.361Z" fill="black"/>
<path d="M531.563 507.361H519.462V519.462H531.563V507.361Z" fill="black"/>
<path d="M47.5381 519.462H35.4375V531.563H47.5381V519.462Z" fill="black"/>
<path d="M59.6387 519.462H47.5381V531.563H59.6387V519.462Z" fill="black"/>
<path d="M71.7393 519.462H59.6387V531.563H71.7393V519.462Z" fill="black"/>
<path d="M83.8399 519.462H71.7393V531.563H83.8399V519.462Z" fill="black"/>
<path d="M95.9406 519.462H83.8399V531.563H95.9406V519.462Z" fill="black"/>
<path d="M108.041 519.462H95.9406V531.563H108.041V519.462Z" fill="black"/>
<path d="M120.142 519.462H108.041V531.563H120.142V519.462Z" fill="black"/>
<path d="M156.444 519.462H144.343V531.563H156.444V519.462Z" fill="black"/>
<path d="M192.745 519.462H180.645V531.563H192.745V519.462Z" fill="black"/>
<path d="M204.846 519.462H192.745V531.563H204.846V519.462Z" fill="black"/>
<path d="M216.947 519.462H204.846V531.563H216.947V519.462Z" fill="black"/>
<path d="M241.148 519.462H229.047V531.563H241.148V519.462Z" fill="black"/>
<path d="M253.248 519.462H241.148V531.563H253.248V519.462Z" fill="black"/>
<path d="M265.349 519.462H253.248V531.563H265.349V519.462Z" fill="black"/>
<path d="M289.55 519.462H277.45V531.563H289.55V519.462Z" fill="black"/>
<path d="M301.651 519.462H289.55V531.563H301.651V519.462Z" fill="black"/>
<path d="M337.953 519.462H325.852V531.563H337.953V519.462Z" fill="black"/>
<path d="M362.154 519.462H350.053V531.563H362.154V519.462Z" fill="black"/>
<path d="M374.255 519.462H362.154V531.563H374.255V519.462Z" fill="black"/>
<path d="M386.355 519.462H374.255V531.563H386.355V519.462Z" fill="black"/>
<path d="M410.556 519.462H398.456V531.563H410.556V519.462Z" fill="black"/>
<path d="M422.657 519.462H410.556V531.563H422.657V519.462Z" fill="black"/>
<path d="M446.858 519.462H434.758V531.563H446.858V519.462Z" fill="black"/>
<path d="M471.059 519.462H458.959V531.563H471.059V519.462Z" fill="black"/>
<path d="M507.361 519.462H495.261V531.563H507.361V519.462Z" fill="black"/>
</g>
<defs>
<clipPath id="clip0_442_3271">
<rect width="567" height="567" rx="35.4375" fill="white"/>
</clipPath>
</defs>
</svg>
